<svg width="161" height="47" viewBox="0 0 161 47" fill="none" xmlns="http://www.w3.org/2000/svg">
<g clip-path="url(#clip0_273_1307)">
<g clip-path="url(#clip1_273_1307)">
<mask id="mask0_273_1307" style="mask-type:luminance" maskUnits="userSpaceOnUse" x="0" y="0" width="161" height="47">
<path d="M161 0H0V47H161V0Z" fill="white"/>
</mask>
<g mask="url(#mask0_273_1307)">
<mask id="mask1_273_1307" style="mask-type:luminance" maskUnits="userSpaceOnUse" x="0" y="0" width="161" height="47">
<path d="M161 0H0V47H161V0Z" fill="white"/>
</mask>
<g mask="url(#mask1_273_1307)">
<path d="M150.038 18.9704C168.929 2.39834 99.049 2.09462 55.1211 12.5049C75.4274 4.81066 153.396 -8.99993 160.828 8.40644C162.607 15.0604 150.038 18.9669 150.038 18.9669" fill="#00569D"/>
<path d="M23.0312 17.9719L23.0781 35.7309L16.8423 35.7414L16.7954 17.9859L23.0351 17.9719H23.0312ZM23.0195 14.0654L23.0273 16.8862L16.7954 16.9037L16.7876 14.0794L23.0234 14.0654H23.0195Z" fill="#909191"/>
<path d="M5.5946 17.8078L5.62978 32.0583C6.5368 32.0583 7.82305 31.8907 8.03417 31.5626C8.24138 31.2379 8.34693 30.3512 8.33912 28.9094L8.31957 20.4959C8.31957 19.5115 8.28047 18.8831 8.20619 18.6073C8.13582 18.3315 7.97553 18.129 7.72922 17.9998C7.47901 17.8707 6.27877 17.8078 5.59069 17.8078M3.3197e-06 14.1143L4.72276 14.1038C7.76832 14.0969 9.82866 14.2155 10.9038 14.4669C11.9828 14.7148 12.796 15.1232 13.359 15.6923C13.9181 16.2613 14.2699 16.8967 14.4107 17.5984C14.5514 18.2966 14.6218 19.6721 14.6296 21.7213L14.6492 29.3108C14.6531 31.2554 14.5553 32.5575 14.352 33.2138C14.1487 33.8702 13.793 34.3833 13.2886 34.7534C12.7765 35.1234 12.1509 35.3853 11.4003 35.5319C10.6497 35.682 9.51981 35.7588 8.01071 35.7588L0.0547373 35.7763L-0.00390625 14.1143H3.3197e-06Z" fill="#909191"/>
<path d="M32.9032 22.6639C32.8993 21.854 32.8445 21.3373 32.7429 21.1139C32.6373 20.8939 31.6756 20.7822 31.3198 20.7822C30.964 20.7822 30.7216 20.9149 30.5731 21.1662C30.4323 21.4211 30.358 21.9238 30.358 22.6744L30.3737 28.6441C30.3737 29.44 30.4362 29.9532 30.5457 30.1871C30.6513 30.428 30.8858 30.5432 31.2299 30.5432C31.6286 30.5432 32.6178 30.3966 32.739 30.1103C32.8563 29.824 32.9149 29.1782 32.9149 28.1693L32.8993 22.6709L32.9032 22.6639ZM38.9591 17.9405L38.9943 31.6184C38.9943 33.4652 38.9474 34.6557 38.8614 35.1968C38.7636 35.7379 38.4313 36.3069 37.8527 36.9144C37.278 37.5183 36.4687 37.9791 35.4366 38.2968C34.4005 38.6145 33.1026 38.7751 31.5348 38.7786C29.6113 38.7821 28.0631 38.4888 26.8902 37.9128C25.7213 37.3298 25.1153 36.1847 25.0684 34.4706L30.9406 34.4602C30.9406 35.2456 31.2651 35.6366 31.9023 35.6331C32.3636 35.6331 32.6686 35.5144 32.8132 35.2736C32.9657 35.0292 33.04 34.53 33.04 33.7584V32.4214C32.5122 32.8403 31.9688 33.1615 31.3941 33.3744C30.8194 33.5909 30.2212 33.6991 29.5839 33.6991C28.501 33.6991 27.6018 33.5071 26.8942 33.1161C26.1904 32.7251 25.7057 32.2119 25.4437 31.5731C25.1857 30.9377 25.0488 30.03 25.0488 28.85L25.0332 22.3986C25.0332 20.7124 25.3655 19.501 26.0458 18.7609C26.7221 18.0173 27.7543 17.6473 29.1461 17.6438C29.9045 17.6438 30.5965 17.7799 31.2221 18.0557C31.8476 18.3315 32.4067 18.7469 32.8953 19.2985L33.3215 17.9545L38.963 17.944L38.9591 17.9405Z" fill="#909191"/>
<path d="M47.3451 17.9265L47.396 35.682L41.1602 35.696L41.1133 17.9405L47.3412 17.93L47.3451 17.9265ZM47.3373 14.0201L47.3451 16.8408L41.1172 16.8548L41.1094 14.034L47.3373 14.0235V14.0201Z" fill="#909191"/>
<path d="M55.9027 15.5422V18.335H57.5448V21.1453H55.9106L55.934 30.6444C55.9379 31.8174 56.0083 32.4633 56.1451 32.5994C56.282 32.7321 56.841 32.7949 57.8341 32.7949V35.6576L55.3945 35.6646C54.0144 35.6646 53.037 35.6157 52.4428 35.5145C51.8524 35.4132 51.3324 35.1758 50.8828 34.8127C50.4332 34.4392 50.1518 34.0133 50.0423 33.5385C49.9289 33.0602 49.8742 31.9431 49.8703 30.1766L49.8507 21.1558H48.5449L48.5371 18.3455H49.839V15.5456L55.9106 15.5387L55.9027 15.5422Z" fill="#909191"/>
<path d="M66.224 27.1953C65.2583 27.8306 63.9682 28.3683 63.8157 28.7942C63.6671 29.2236 63.5889 29.838 63.5889 30.6409C63.5889 31.5591 63.6632 32.1526 63.7961 32.4179C63.933 32.6867 64.2027 32.8193 64.5976 32.8193C64.9729 32.8193 65.9542 32.7111 66.0598 32.5052C66.1771 32.2957 66.2318 31.7406 66.2318 30.8504L66.224 27.1953ZM63.5733 24.7655L58.6199 24.7795V23.589C58.6121 22.2135 58.788 21.1558 59.1399 20.4087C59.4956 19.6616 60.2033 19.0088 61.2706 18.4292C62.3379 17.8567 63.7258 17.5704 65.4343 17.567C67.4829 17.5635 69.0232 17.8846 70.0671 18.5305C71.111 19.1728 71.7365 19.9653 71.9476 20.9079C72.1587 21.847 72.2721 23.7845 72.276 26.7205L72.2956 35.6331L66.4116 35.6436V34.0622C66.0363 34.694 65.5633 35.1723 64.9768 35.4935C64.3943 35.8112 63.6984 35.9718 62.8891 35.9753C61.8335 35.9753 60.8561 35.7099 59.9726 35.1863C59.089 34.6591 58.6433 33.4966 58.6355 31.7057V30.2464C58.6316 28.9164 58.8623 28.0122 59.3314 27.5269C59.8006 27.0452 60.9617 26.4831 62.8227 25.8372C64.8009 25.1321 65.8682 24.6608 66.009 24.4234C66.1497 24.1825 66.2162 23.6937 66.2162 22.9502C66.2084 22.0215 66.1341 21.4176 65.9777 21.1383C65.8213 20.8555 65.5633 20.7159 65.2075 20.7194C64.797 20.7194 63.8157 20.8381 63.714 21.0755C63.6202 21.3094 63.5655 21.9273 63.5694 22.9187V24.7725L63.5733 24.7655Z" fill="#909191"/>
<path d="M80.5566 13.9502L80.6152 35.6122L74.3794 35.6262L74.3286 13.9607L80.5566 13.9502Z" fill="#909191"/>
<path d="M106.661 13.8979L103.912 35.5633L96.0308 35.5808C95.3036 32.2503 94.6546 28.466 94.0916 24.2244C93.8492 26.0432 93.2667 29.8345 92.3636 35.5878L84.5366 35.6017L81.6514 13.9467L87.7855 13.9328L88.4657 21.4909L89.1343 28.7942C89.3571 25.0134 89.9279 20.0561 90.8389 13.9258L96.6641 13.9153C96.754 14.5472 97.7158 16.9246 98.0989 21.0545L98.8183 29.2934C99.1584 24.0533 99.7331 18.9215 100.535 13.9049L106.661 13.8944V13.8979Z" fill="#1D1D1B"/>
<path d="M115.102 27.0801C114.155 27.7399 112.881 28.3019 112.744 28.7348C112.599 29.1677 112.545 29.7821 112.564 30.5886C112.596 31.5067 112.689 32.0967 112.826 32.3585C112.967 32.6273 113.245 32.7495 113.639 32.7425C114.023 32.7321 114.992 32.6029 115.098 32.3899C115.207 32.177 115.246 31.6254 115.215 30.7352L115.098 27.0836L115.102 27.0801ZM112.377 24.7131L107.427 24.8458L107.388 23.6553C107.341 22.2764 107.486 21.2186 107.818 20.4645C108.143 19.7105 108.835 19.0332 109.886 18.4362C110.934 17.8393 112.31 17.5181 114.026 17.4727C116.071 17.4168 117.627 17.7031 118.683 18.321C119.742 18.9424 120.391 19.7174 120.638 20.6565C120.876 21.5921 121.044 23.5262 121.142 26.4587L121.435 35.3643L115.551 35.5179L115.496 33.94C115.149 34.5858 114.683 35.0711 114.112 35.4027C113.542 35.7344 112.846 35.9124 112.037 35.9334C110.977 35.9613 109.992 35.7239 109.096 35.2107C108.193 34.708 107.713 33.556 107.65 31.7616L107.607 30.3058C107.56 28.9757 107.767 28.0645 108.225 27.5723C108.674 27.0801 109.824 26.4866 111.661 25.7954C113.62 25.0483 114.668 24.5525 114.801 24.3082C114.937 24.0638 114.988 23.5716 114.965 22.8315C114.933 21.9063 114.836 21.3024 114.672 21.0231C114.511 20.7473 114.249 20.6146 113.886 20.6216C113.479 20.6321 112.502 20.7752 112.408 21.0161C112.314 21.257 112.291 21.8714 112.322 22.8594L112.381 24.7166L112.377 24.7131Z" fill="#1D1D1B"/>
<path d="M129.254 17.7555L129.02 20.0945C129.895 18.4188 131.166 17.532 132.831 17.4273L132.847 23.6798C131.741 23.6798 130.924 23.8159 130.404 24.0882C129.888 24.3535 129.567 24.7271 129.446 25.2054C129.328 25.6836 129.274 26.7833 129.278 28.5044L129.293 35.5144L123.241 35.5284L123.198 17.7729L129.254 17.759V17.7555Z" fill="#1D1D1B"/>
<path d="M142.57 24.0324V22.7372C142.566 21.8191 142.504 21.2256 142.394 20.9568C142.281 20.688 141.335 20.5588 140.995 20.5588C140.573 20.5588 140.311 20.674 140.213 20.9009C140.111 21.1243 140.068 21.7457 140.068 22.7407V24.0394L142.57 24.0324ZM147.911 26.9125L140.076 26.9265L140.088 30.7666C140.088 31.5661 140.154 32.0862 140.283 32.3166C140.412 32.5471 140.666 32.6623 141.03 32.6623C141.491 32.6623 142.527 32.5087 142.68 32.1979C142.832 31.8907 142.91 31.2973 142.91 30.4105L142.903 28.068L147.911 28.0576V29.3702C147.919 30.4664 147.84 31.3077 147.692 31.8977C147.539 32.4877 147.18 33.1161 146.613 33.7864C146.042 34.4567 145.323 34.9594 144.451 35.2945C143.579 35.6297 142.48 35.8007 141.163 35.8042C139.881 35.8042 138.751 35.6436 137.777 35.3155C136.796 34.9908 136.03 34.537 135.482 33.9609C134.939 33.3849 134.56 32.7565 134.348 32.0653C134.133 31.3741 134.032 30.3686 134.024 29.049L134.012 23.8718C134.008 22.3218 134.243 21.0964 134.708 20.1992C135.177 19.2985 135.944 18.6108 137.011 18.1325C138.082 17.6507 139.306 17.4134 140.694 17.4064C142.39 17.4064 143.798 17.6891 144.9 18.2617C146.007 18.8342 146.785 19.5953 147.227 20.5448C147.676 21.4944 147.903 22.828 147.907 24.5491V26.9055L147.911 26.9125Z" fill="#1D1D1B"/>
<path d="M15.3296 41.732H13.8596V45.5966H12.7337V41.732H11.252V40.9675H15.3296V41.732Z" fill="#909191"/>
<path d="M17.863 45.3522C17.7145 45.45 17.5112 45.5303 17.2571 45.5896C16.999 45.6525 16.7332 45.6804 16.4556 45.6804C16.1428 45.6804 15.8809 45.642 15.6541 45.5617C15.4313 45.4814 15.2475 45.3662 15.1068 45.2161C14.9661 45.066 14.8566 44.8844 14.7901 44.6715C14.7198 44.4585 14.6846 44.2141 14.6846 43.9418C14.6846 43.3449 14.8449 42.905 15.1615 42.6222C15.4782 42.3395 15.92 42.1963 16.4869 42.1963C16.6784 42.1963 16.8622 42.2173 17.0381 42.2592C17.2141 42.3011 17.3744 42.3709 17.5151 42.4721C17.6558 42.5734 17.7692 42.7025 17.8552 42.8701C17.9412 43.0342 17.9842 43.2436 17.9842 43.495C17.9842 43.5927 17.9764 43.694 17.9647 43.8057C17.9491 43.9174 17.9256 44.0361 17.8982 44.1618H15.7284C15.7402 44.4376 15.8183 44.6435 15.9591 44.7902C16.0998 44.9368 16.3305 45.0101 16.6433 45.0101C16.8348 45.0101 17.0069 44.9892 17.1671 44.9438C17.3274 44.8984 17.4486 44.853 17.5307 44.8041L17.8591 45.3557L17.863 45.3522ZM16.4712 42.8736C16.2445 42.8736 16.0764 42.9399 15.963 43.0761C15.8496 43.2122 15.7832 43.4007 15.7675 43.6416H16.999C17.0186 43.3903 16.9834 43.1983 16.8935 43.0691C16.8036 42.9399 16.6628 42.8736 16.4752 42.8736" fill="#909191"/>
<path d="M21.2953 45.4185C21.1468 45.5058 20.9669 45.5721 20.7597 45.614C20.5525 45.6594 20.3453 45.6804 20.1342 45.6804C19.8332 45.6804 19.579 45.6385 19.3718 45.5582C19.1685 45.4744 19.0004 45.3592 18.8675 45.2091C18.7385 45.0555 18.6447 44.8739 18.586 44.6575C18.5274 44.4445 18.5 44.2036 18.5 43.9418C18.5 43.3623 18.6407 42.9294 18.9183 42.6397C19.1998 42.3464 19.6103 42.2033 20.1498 42.2033C20.4196 42.2033 20.6346 42.2207 20.8027 42.2556C20.9748 42.2906 21.1233 42.3324 21.2523 42.3883L21.0021 43.0446C20.8966 43.0062 20.7949 42.9748 20.6933 42.9573C20.5955 42.9364 20.4782 42.9294 20.3414 42.9294C20.0912 42.9294 19.9035 43.0097 19.7784 43.1703C19.6533 43.3309 19.5908 43.5892 19.5908 43.9488C19.5908 44.249 19.6533 44.4934 19.7823 44.6819C19.9074 44.8739 20.1107 44.9647 20.3922 44.9647C20.5408 44.9647 20.6659 44.9507 20.7715 44.9228C20.877 44.8949 20.9708 44.8565 21.0608 44.8146L21.2836 45.4255L21.2953 45.4185Z" fill="#909191"/>
<path d="M24.0009 45.5966V43.5997C24.0009 43.3623 23.9618 43.1913 23.8875 43.0865C23.8132 42.9818 23.6803 42.9259 23.4809 42.9259C23.3402 42.9259 23.2073 42.9643 23.09 43.0377C22.9688 43.1145 22.8906 43.2087 22.8476 43.3204V45.5966H21.7881V40.9675H22.8476V42.5873H22.8749C22.9922 42.4721 23.1369 42.3813 23.3089 42.308C23.477 42.2382 23.6881 42.2033 23.9462 42.2033C24.1299 42.2033 24.2941 42.2208 24.427 42.2626C24.5639 42.3045 24.6812 42.3674 24.775 42.4581C24.8688 42.5524 24.9392 42.6781 24.99 42.8317C25.0369 42.9888 25.0604 43.1843 25.0604 43.4217V45.5931H24.0009V45.5966Z" fill="#909191"/>
<path d="M28.0043 45.5966V43.5858C28.0043 43.3449 27.9652 43.1738 27.887 43.0761C27.8127 42.9783 27.6798 42.9294 27.4961 42.9294C27.3436 42.9294 27.2068 42.9643 27.0934 43.0342C26.98 43.104 26.9018 43.1948 26.8549 43.2995V45.5931H25.7954V42.2871H26.6438L26.7689 42.6711H26.7963C26.9018 42.5419 27.0465 42.4337 27.2341 42.3429C27.4179 42.2522 27.6603 42.2068 27.9574 42.2068C28.1372 42.2068 28.2975 42.2242 28.4383 42.2661C28.579 42.3045 28.6963 42.3709 28.7901 42.4616C28.884 42.5524 28.9543 42.6746 29.0052 42.8247C29.0521 42.9748 29.0755 43.1633 29.0755 43.3903V45.5931H28.016L28.0043 45.5966Z" fill="#909191"/>
<path d="M29.6387 43.9453C29.6387 43.3588 29.7911 42.9225 30.1 42.6362C30.4128 42.3499 30.8428 42.2068 31.3941 42.2068C31.9883 42.2068 32.4301 42.3499 32.7233 42.6432C33.0126 42.9329 33.1612 43.3693 33.1612 43.9453C33.1612 44.5214 33.0087 44.9717 32.6999 45.258C32.3871 45.5442 31.9531 45.6839 31.398 45.6839C30.2251 45.6839 29.6387 45.1044 29.6387 43.9453ZM30.7373 43.9453C30.7373 44.277 30.7881 44.5318 30.8858 44.7134C30.9875 44.8949 31.1556 44.9822 31.3941 44.9822C31.6208 44.9822 31.7889 44.9054 31.8984 44.7483C32.0079 44.5912 32.0626 44.3259 32.0626 43.9453C32.0626 43.6032 32.0118 43.3484 31.9101 43.1703C31.8085 42.9923 31.6365 42.905 31.3941 42.905C31.1869 42.905 31.0227 42.9818 30.9093 43.1389C30.792 43.296 30.7373 43.5613 30.7373 43.9418" fill="#909191"/>
<path d="M34.8461 44.5248C34.8461 44.6784 34.8657 44.7902 34.9087 44.8565C34.9478 44.9228 35.0181 44.9542 35.112 44.9542C35.1667 44.9542 35.2214 44.9507 35.2762 44.9403C35.3348 44.9333 35.3974 44.9158 35.4677 44.8949L35.5655 45.5303C35.4951 45.5652 35.37 45.5966 35.2019 45.628C35.0299 45.6594 34.8539 45.6734 34.6741 45.6734C34.3731 45.6734 34.1502 45.6175 34.0056 45.5058C33.857 45.3976 33.7827 45.2091 33.7827 44.9438V40.964H34.8422V44.5213L34.8461 44.5248Z" fill="#909191"/>
<path d="M35.7764 43.9453C35.7764 43.3588 35.9327 42.9225 36.2416 42.6362C36.5505 42.3499 36.9805 42.2068 37.5357 42.2068C38.1299 42.2068 38.5717 42.3499 38.8649 42.6432C39.1581 42.9329 39.3028 43.3693 39.3028 43.9453C39.3028 44.5214 39.1503 44.9717 38.8415 45.258C38.5287 45.5442 38.0947 45.6839 37.5396 45.6839C36.3667 45.6839 35.7803 45.1044 35.7803 43.9453M36.8789 43.9453C36.8789 44.277 36.9297 44.5318 37.0313 44.7134C37.133 44.8949 37.3011 44.9822 37.5396 44.9822C37.7781 44.9822 37.9344 44.9054 38.0439 44.7483C38.1573 44.5912 38.2081 44.3259 38.2081 43.9453C38.2081 43.6032 38.1573 43.3484 38.0556 43.1703C37.954 42.9923 37.782 42.905 37.5396 42.905C37.3324 42.905 37.1682 42.9818 37.0548 43.1389C36.9375 43.296 36.8828 43.5613 36.8828 43.9418" fill="#909191"/>
<path d="M43.099 45.5966C43.099 46.0749 42.9505 46.4309 42.6533 46.6579C42.3562 46.8848 41.9418 47 41.414 47C41.0465 47 40.7572 46.979 40.5461 46.9371C40.3389 46.8952 40.1786 46.8499 40.0652 46.801L40.2881 46.1342C40.421 46.1726 40.5617 46.211 40.7142 46.2459C40.8667 46.2808 41.0465 46.2983 41.2537 46.2983C41.5587 46.2983 41.7659 46.2354 41.8832 46.1167C42.0004 45.9946 42.0591 45.813 42.0591 45.5652V45.3871H42.0317C41.9496 45.4744 41.8362 45.5407 41.6955 45.5861C41.5587 45.6315 41.3788 45.6524 41.156 45.6524C40.6868 45.6524 40.335 45.5198 40.1004 45.2579C39.8658 44.9961 39.7485 44.5807 39.7485 44.0116C39.7485 43.3972 39.9088 42.9469 40.2333 42.6571C40.5578 42.3674 41.0191 42.2207 41.6212 42.2207C41.9418 42.2207 42.2272 42.2382 42.4852 42.2766C42.7433 42.315 42.9466 42.3604 43.1029 42.4127V45.6001L43.099 45.5966ZM41.4492 44.9752C41.6095 44.9752 41.7346 44.9472 41.8284 44.8879C41.9223 44.832 41.9887 44.7483 42.0356 44.6435V42.9888C41.9731 42.9678 41.8988 42.9469 41.8167 42.9364C41.7346 42.9224 41.6447 42.9189 41.5352 42.9189C41.3163 42.9189 41.1443 42.9957 41.0191 43.1563C40.8979 43.3169 40.8393 43.5892 40.8393 43.9767C40.8393 44.6435 41.0426 44.9752 41.4453 44.9752" fill="#909191"/>
<path d="M45.2843 44.1478L45.4016 44.6645H45.4446L45.5267 44.1408L46.0428 42.2906H47.1335L46.0193 45.2754C45.9177 45.5372 45.8238 45.7676 45.7339 45.9771C45.644 46.1831 45.5502 46.3611 45.4485 46.5043C45.3508 46.6509 45.2335 46.7626 45.1084 46.8394C44.9794 46.9162 44.8269 46.9546 44.6471 46.9546C44.522 46.9546 44.4008 46.9476 44.2874 46.9302C44.1701 46.9162 44.0723 46.8883 43.9902 46.8534L44.1701 46.1866C44.2483 46.2075 44.3265 46.218 44.4086 46.2145C44.4907 46.2145 44.561 46.1901 44.6314 46.1482C44.6979 46.1063 44.7604 46.0399 44.8152 45.9527C44.866 45.8654 44.9129 45.7467 44.9481 45.6001L43.396 42.294H44.6744L45.3 44.1548L45.2843 44.1478Z" fill="#909191"/>
<path d="M48.6392 42.2906H49.1318V41.6691L50.1913 41.4248V42.2906H51.0553V42.9923H50.1913V44.4341C50.1913 44.6226 50.2186 44.7587 50.2656 44.839C50.3164 44.9193 50.4063 44.9577 50.5392 44.9577C50.6252 44.9577 50.7073 44.9507 50.7777 44.9403C50.8481 44.9263 50.9263 44.9053 51.0084 44.8809L51.1413 45.5093C51.0123 45.5582 50.8598 45.6001 50.6878 45.6315C50.5158 45.6664 50.3359 45.6804 50.1404 45.6804C49.8042 45.6804 49.5501 45.607 49.3781 45.4604C49.21 45.3138 49.124 45.0694 49.124 44.7273V42.9957H48.6313V42.294L48.6392 42.2906Z" fill="#909191"/>
<path d="M53.7958 45.5966V43.5997C53.7958 43.3623 53.7567 43.1913 53.6824 43.0865C53.6082 42.9818 53.4752 42.9259 53.2759 42.9259C53.1351 42.9259 53.0022 42.9643 52.881 43.0377C52.7637 43.1145 52.6855 43.2087 52.6425 43.3204V45.5966H51.583V40.9675H52.6425V42.5873H52.6699C52.7911 42.4721 52.9318 42.3813 53.1038 42.308C53.2719 42.2382 53.487 42.2033 53.7411 42.2033C53.9248 42.2033 54.089 42.2208 54.2259 42.2626C54.3627 42.3045 54.4761 42.3674 54.5738 42.4581C54.6677 42.5524 54.738 42.6781 54.7889 42.8317C54.8358 42.9888 54.8592 43.1843 54.8592 43.4217V45.5931H53.7958V45.5966Z" fill="#909191"/>
<path d="M55.5979 42.4896C55.7777 42.4093 56.0005 42.3464 56.2664 42.2976C56.5323 42.2487 56.8372 42.2242 57.1734 42.2242C57.6778 42.2242 58.0296 42.322 58.229 42.514C58.4284 42.7095 58.5261 42.9818 58.5261 43.3414C58.5261 43.5474 58.5183 43.7533 58.5066 43.9523C58.4909 44.1548 58.4792 44.3503 58.4753 44.5423C58.4675 44.7343 58.4753 44.9193 58.487 45.0974C58.5027 45.2754 58.5418 45.4465 58.6082 45.6036H57.7442L57.5722 45.2021H57.537C57.4432 45.3278 57.3063 45.436 57.1343 45.5198C56.9623 45.6036 56.7434 45.6455 56.4853 45.6455C56.1335 45.6455 55.8559 45.5582 55.6565 45.3836C55.4532 45.2091 55.3516 44.9787 55.3516 44.6854C55.3516 44.2875 55.5431 44.0082 55.9224 43.8406C56.3016 43.673 56.8177 43.5997 57.4666 43.6276C57.494 43.3728 57.4745 43.1878 57.4002 43.0726C57.3259 42.9609 57.1656 42.9015 56.9232 42.9015C56.7434 42.9015 56.5596 42.919 56.372 42.9469C56.1804 42.9783 56.0123 43.0202 55.8637 43.0796L55.5979 42.4896ZM56.8724 44.9682C57.0327 44.9682 57.1656 44.9403 57.2672 44.8809C57.365 44.8216 57.4393 44.7553 57.4901 44.6854V44.1373C57.3533 44.1234 57.2203 44.1234 57.0952 44.1304C56.9701 44.1373 56.8607 44.1583 56.7668 44.1897C56.673 44.2211 56.5948 44.2665 56.5401 44.3259C56.4814 44.3852 56.4541 44.462 56.4541 44.5563C56.4541 44.6924 56.4932 44.7971 56.5674 44.867C56.6417 44.9368 56.7434 44.9717 56.8763 44.9717" fill="#909191"/>
<path d="M58.9248 42.2906H59.4135V41.6691L60.4769 41.4248V42.2906H61.3409V42.9923H60.4769V44.4341C60.4769 44.6226 60.5043 44.7587 60.5512 44.839C60.602 44.9193 60.6919 44.9577 60.8209 44.9577C60.9109 44.9577 60.993 44.9507 61.0633 44.9403C61.1337 44.9263 61.2119 44.9053 61.294 44.8809L61.4269 45.5093C61.2979 45.5582 61.1454 45.6001 60.9695 45.6315C60.7975 45.6664 60.6176 45.6804 60.4261 45.6804C60.0859 45.6804 59.8318 45.607 59.6637 45.4604C59.4956 45.3138 59.4096 45.0694 59.4096 44.7273V42.9957H58.9209V42.294L58.9248 42.2906Z" fill="#909191"/>
<path d="M67.1506 45.4115C66.9981 45.5093 66.7909 45.5791 66.5329 45.621C66.2748 45.6664 66.0168 45.6873 65.7588 45.6873C65.4382 45.6873 65.1411 45.6454 64.8635 45.5652C64.5898 45.4849 64.3474 45.3487 64.1363 45.1567C63.9291 44.9682 63.7649 44.7168 63.6437 44.4096C63.5264 44.0989 63.4639 43.7219 63.4639 43.2715C63.4639 42.8212 63.5303 42.4162 63.6672 42.1055C63.8001 41.7983 63.976 41.5504 64.191 41.3689C64.41 41.1874 64.6602 41.0582 64.9378 40.9814C65.2193 40.9046 65.5008 40.8697 65.7862 40.8697C66.0716 40.8697 66.3335 40.8871 66.5485 40.9221C66.7635 40.957 66.9434 40.9989 67.0802 41.0408L66.8574 41.7739C66.744 41.7285 66.6111 41.6971 66.4625 41.6726C66.31 41.6482 66.1302 41.6342 65.923 41.6342C65.5125 41.6342 65.1958 41.7669 64.9769 42.0322C64.7579 42.2975 64.6485 42.7095 64.6485 43.275C64.6485 43.5159 64.6758 43.7393 64.7228 43.9383C64.7736 44.1408 64.8518 44.3119 64.9651 44.4585C65.0746 44.6051 65.2154 44.7168 65.3835 44.7971C65.5555 44.8774 65.7588 44.9158 65.9973 44.9158C66.2045 44.9158 66.3843 44.8949 66.5329 44.853C66.6814 44.8111 66.8144 44.7622 66.9356 44.7064L67.1584 45.4081L67.1506 45.4115Z" fill="#909191"/>
<path d="M69.8798 45.5966V43.5997C69.8798 43.3623 69.8407 43.1913 69.7664 43.0865C69.6921 42.9818 69.5592 42.9259 69.3598 42.9259C69.2191 42.9259 69.0862 42.9643 68.9689 43.0377C68.8477 43.1145 68.7695 43.2087 68.7265 43.3204V45.5966H67.667V40.9675H68.7265V42.5873H68.7539C68.8711 42.4721 69.0158 42.3813 69.1878 42.308C69.3559 42.2382 69.567 42.2033 69.8251 42.2033C70.0088 42.2033 70.173 42.2208 70.306 42.2626C70.4428 42.3045 70.5601 42.3674 70.6539 42.4581C70.7477 42.5524 70.8181 42.6781 70.8689 42.8317C70.9158 42.9888 70.9393 43.1843 70.9393 43.4217V45.5931H69.8798V45.5966Z" fill="#909191"/>
<path d="M71.6819 42.4896C71.8617 42.4093 72.0845 42.3464 72.3504 42.2976C72.6201 42.2487 72.9212 42.2242 73.2613 42.2242C73.7657 42.2242 74.1175 42.322 74.3169 42.514C74.5163 42.7095 74.614 42.9818 74.614 43.3414C74.614 43.5474 74.6062 43.7533 74.5945 43.9523C74.5788 44.1548 74.5671 44.3503 74.5632 44.5423C74.5554 44.7343 74.5632 44.9193 74.5749 45.0974C74.5906 45.2754 74.6336 45.4465 74.6961 45.6036H73.8282L73.6601 45.2021H73.6249C73.5311 45.3278 73.3981 45.436 73.2222 45.5198C73.0502 45.6036 72.8313 45.6455 72.5693 45.6455C72.2175 45.6455 71.9438 45.5582 71.7405 45.3836C71.5372 45.2091 71.4355 44.9787 71.4355 44.6854C71.4355 44.2875 71.6271 44.0082 72.0063 43.8406C72.3895 43.673 72.9016 43.5997 73.5506 43.6276C73.578 43.3728 73.5584 43.1878 73.4842 43.0726C73.4099 42.9609 73.2496 42.9015 73.0033 42.9015C72.8234 42.9015 72.6436 42.919 72.452 42.9469C72.2605 42.9783 72.0924 43.0202 71.9438 43.0796L71.674 42.4896H71.6819ZM72.9603 44.9682C73.1206 44.9682 73.2535 44.9403 73.3512 44.8809C73.4529 44.8216 73.5272 44.7553 73.5741 44.6854V44.1373C73.4372 44.1234 73.3082 44.1234 73.1831 44.1304C73.058 44.1373 72.9486 44.1583 72.8547 44.1897C72.7609 44.2211 72.6827 44.2665 72.628 44.3259C72.5693 44.3852 72.542 44.462 72.542 44.5563C72.542 44.6924 72.581 44.7971 72.6553 44.867C72.7296 44.9368 72.8352 44.9717 72.9642 44.9717" fill="#909191"/>
<path d="M77.5698 45.5966V43.5858C77.5698 43.3449 77.5307 43.1738 77.4525 43.0761C77.3743 42.9783 77.2453 42.9294 77.0615 42.9294C76.9051 42.9294 76.7722 42.9643 76.6588 43.0342C76.5454 43.104 76.4673 43.1948 76.4203 43.2995V45.5931H75.3569V42.2871H76.2053L76.3304 42.6711H76.3578C76.4633 42.5419 76.608 42.4337 76.7957 42.3429C76.9794 42.2522 77.2218 42.2068 77.5189 42.2068C77.6988 42.2068 77.8551 42.2242 77.9959 42.2661C78.1366 42.3045 78.2539 42.3709 78.3478 42.4616C78.4416 42.5524 78.512 42.6746 78.5628 42.8247C78.6097 42.9748 78.6332 43.1633 78.6332 43.3903V45.5931H77.5737L77.5698 45.5966Z" fill="#909191"/>
<path d="M82.5546 45.5966C82.5546 46.0749 82.4061 46.4309 82.1089 46.6579C81.8118 46.8848 81.3974 47 80.8696 47C80.4982 47 80.2089 46.979 80.0017 46.9371C79.7945 46.8952 79.6303 46.8499 79.5208 46.801L79.7436 46.1342C79.8727 46.1726 80.0173 46.211 80.1659 46.2459C80.3183 46.2808 80.4982 46.2983 80.7054 46.2983C81.0103 46.2983 81.2175 46.2354 81.3348 46.1167C81.4521 45.9946 81.5068 45.813 81.5068 45.5652V45.3871H81.4795C81.3974 45.4744 81.284 45.5407 81.1433 45.5861C81.0025 45.6315 80.8227 45.6524 80.6037 45.6524C80.1307 45.6524 79.7788 45.5198 79.5442 45.2579C79.3097 44.9961 79.1924 44.5807 79.1924 44.0116C79.1924 43.3972 79.3527 42.9469 79.6772 42.6571C80.0017 42.3674 80.4669 42.2207 81.0651 42.2207C81.3857 42.2207 81.675 42.2382 81.933 42.2766C82.1871 42.315 82.3943 42.3604 82.5468 42.4127V45.6001L82.5546 45.5966ZM80.9048 44.9752C81.0651 44.9752 81.1902 44.9472 81.284 44.8879C81.3778 44.832 81.4482 44.7483 81.4951 44.6435V42.9888C81.4287 42.9678 81.3544 42.9469 81.2762 42.9364C81.1941 42.9224 81.1003 42.9189 80.9947 42.9189C80.7758 42.9189 80.6037 42.9957 80.4825 43.1563C80.3574 43.3169 80.2988 43.5892 80.2988 43.9767C80.2988 44.6435 80.5021 44.9752 80.9048 44.9752Z" fill="#909191"/>
<path d="M86.3313 45.3522C86.1827 45.45 85.9794 45.5303 85.7253 45.5896C85.4673 45.6525 85.2014 45.6804 84.92 45.6804C84.6111 45.6804 84.3452 45.642 84.1224 45.5617C83.8956 45.4814 83.7158 45.3662 83.5712 45.2161C83.4265 45.066 83.3209 44.8844 83.2545 44.6715C83.1841 44.4585 83.1528 44.2141 83.1528 43.9418C83.1528 43.3449 83.3131 42.905 83.6298 42.6222C83.9465 42.3395 84.3922 42.1963 84.9551 42.1963C85.1467 42.1963 85.3305 42.2173 85.5064 42.2592C85.6862 42.3011 85.8465 42.3709 85.9834 42.4721C86.1241 42.5734 86.2375 42.7025 86.3235 42.8701C86.4095 43.0342 86.4525 43.2436 86.4525 43.495C86.4525 43.5927 86.4447 43.694 86.4291 43.8057C86.4134 43.9174 86.3939 44.0361 86.3665 44.1618H84.2006C84.2123 44.4376 84.2866 44.6435 84.4313 44.7902C84.5759 44.9368 84.8027 45.0101 85.1193 45.0101C85.3109 45.0101 85.4829 44.9892 85.6432 44.9438C85.7996 44.8984 85.9208 44.853 86.0029 44.8041L86.3313 45.3557V45.3522ZM84.9395 42.8736C84.7127 42.8736 84.5446 42.9399 84.4313 43.0761C84.3179 43.2122 84.2514 43.4007 84.2358 43.6416H85.4634C85.4829 43.3903 85.4477 43.1983 85.3578 43.0691C85.2718 42.9399 85.1311 42.8736 84.9395 42.8736Z" fill="#909191"/>
<path d="M88.6299 44.7168C88.6299 44.6226 88.5908 44.5458 88.5126 44.4829C88.4305 44.4201 88.3288 44.3607 88.2037 44.3049C88.0786 44.249 87.9457 44.1932 87.8049 44.1338C87.6681 44.078 87.5352 44.0081 87.4101 43.9244C87.285 43.8406 87.1833 43.7393 87.1012 43.6206C87.023 43.5019 86.9839 43.3518 86.9839 43.1703C86.9839 42.8631 87.0973 42.6222 87.3202 42.4546C87.5469 42.2871 87.8792 42.2033 88.321 42.2033C88.583 42.2033 88.8293 42.2242 89.0638 42.2661C89.2945 42.308 89.4783 42.3604 89.6151 42.4232L89.3649 43.0341C89.2515 42.9992 89.1147 42.9643 88.9544 42.9329C88.7941 42.898 88.6338 42.8805 88.4813 42.8805C88.1881 42.8805 88.0434 42.9713 88.0434 43.1528C88.0434 43.2366 88.0825 43.3064 88.1646 43.3623C88.2467 43.4147 88.3484 43.4705 88.4735 43.5229C88.5986 43.5753 88.7315 43.6311 88.8684 43.687C89.0091 43.7428 89.142 43.8161 89.2632 43.9034C89.3883 43.9907 89.49 44.0954 89.5721 44.2176C89.6542 44.3398 89.6933 44.4934 89.6933 44.6714C89.6933 44.9752 89.5682 45.2195 89.318 45.4046C89.0677 45.5896 88.6963 45.6839 88.2037 45.6839C87.9574 45.6839 87.7189 45.6629 87.4844 45.6175C87.2498 45.5756 87.0582 45.5163 86.9175 45.4465L87.2107 44.8111C87.3358 44.8635 87.4805 44.9088 87.6447 44.9507C87.8089 44.9926 87.9809 45.0101 88.1568 45.0101C88.2937 45.0101 88.407 44.9856 88.4969 44.9403C88.5869 44.8949 88.6299 44.8181 88.6299 44.7203" fill="#909191"/>
<path d="M92.1016 41.0128C92.3166 40.9779 92.5512 40.95 92.8053 40.929C93.0594 40.9081 93.3174 40.9011 93.5716 40.9011C93.8452 40.9011 94.115 40.9186 94.3769 40.957C94.6389 40.9954 94.8774 41.0687 95.0846 41.1804C95.2918 41.2921 95.4638 41.4457 95.5928 41.6482C95.7218 41.8507 95.7883 42.109 95.7883 42.4337C95.7883 42.7234 95.7336 42.9713 95.6241 43.1738C95.5146 43.3763 95.3661 43.5404 95.1823 43.6695C94.9986 43.7987 94.7874 43.8895 94.545 43.9488C94.3066 44.0047 94.0563 44.0326 93.8022 44.0326H93.6849C93.6302 44.0326 93.5716 44.0326 93.5129 44.0326C93.4543 44.0326 93.3956 44.0256 93.3409 44.0221C93.2823 44.0186 93.2432 44.0151 93.2197 44.0082V45.6036H92.0977V41.0198L92.1016 41.0128ZM93.2236 43.2541C93.2588 43.2611 93.3253 43.2715 93.4269 43.2785C93.5246 43.2855 93.5911 43.289 93.6263 43.289C93.7553 43.289 93.8843 43.275 94.0016 43.2506C94.1189 43.2227 94.2284 43.1773 94.3183 43.1144C94.4121 43.0516 94.4825 42.9608 94.5372 42.8491C94.588 42.7374 94.6193 42.5943 94.6193 42.4232C94.6193 42.2766 94.592 42.1544 94.545 42.0532C94.4942 41.9519 94.4238 41.8716 94.3378 41.8123C94.2518 41.7529 94.1541 41.711 94.0407 41.6831C93.9273 41.6587 93.81 41.6412 93.6849 41.6412C93.5012 41.6412 93.3487 41.6517 93.2275 41.6761V43.2576L93.2236 43.2541Z" fill="#909191"/>
<path d="M96.3555 40.9675H99.4753V41.732H97.4775V42.8701H99.2876V43.6381H97.4775V44.8286H99.5144V45.5966H96.3555V40.9675Z" fill="#909191"/>
<path d="M100.05 43.282C100.05 42.4965 100.23 41.8996 100.593 41.4911C100.957 41.0827 101.508 40.8767 102.255 40.8767C102.638 40.8767 102.974 40.9325 103.256 41.0443C103.537 41.156 103.764 41.3166 103.94 41.526C104.12 41.7355 104.253 41.9868 104.335 42.2871C104.421 42.5838 104.464 42.9155 104.464 43.282C104.464 44.0675 104.28 44.6645 103.905 45.0729C103.533 45.4814 102.982 45.6873 102.251 45.6873C101.856 45.6873 101.524 45.6315 101.246 45.5163C100.969 45.4046 100.742 45.244 100.562 45.0345C100.386 44.8251 100.253 44.5737 100.171 44.2735C100.089 43.9767 100.046 43.6451 100.046 43.2785M101.223 43.2785C101.223 43.5124 101.242 43.7289 101.277 43.9313C101.313 44.1303 101.371 44.3049 101.457 44.4515C101.539 44.5981 101.649 44.7133 101.774 44.7936C101.899 44.8774 102.059 44.9193 102.251 44.9193C102.595 44.9193 102.853 44.7901 103.029 44.5283C103.201 44.27 103.287 43.8511 103.287 43.2785C103.287 43.0551 103.267 42.8421 103.232 42.6397C103.197 42.4407 103.138 42.2661 103.06 42.1195C102.978 41.9694 102.873 41.8542 102.743 41.7669C102.614 41.6831 102.45 41.6377 102.255 41.6377C101.571 41.6377 101.227 42.1858 101.227 43.2785" fill="#909191"/>
<path d="M105.125 41.0128C105.34 40.9779 105.574 40.95 105.828 40.929C106.086 40.9081 106.34 40.9011 106.595 40.9011C106.868 40.9011 107.138 40.9186 107.404 40.957C107.666 40.9954 107.904 41.0687 108.111 41.1804C108.319 41.2921 108.491 41.4457 108.62 41.6482C108.749 41.8507 108.815 42.109 108.815 42.4337C108.815 42.7234 108.76 42.9713 108.651 43.1738C108.541 43.3763 108.393 43.5404 108.209 43.6695C108.025 43.7987 107.81 43.8895 107.572 43.9488C107.33 44.0047 107.083 44.0326 106.825 44.0326H106.708C106.657 44.0326 106.598 44.0326 106.54 44.0326C106.481 44.0326 106.422 44.0256 106.364 44.0221C106.309 44.0186 106.27 44.0151 106.247 44.0082V45.6036H105.121V41.0198L105.125 41.0128ZM106.25 43.2541C106.286 43.2611 106.352 43.2715 106.45 43.2785C106.552 43.2855 106.618 43.289 106.653 43.289C106.782 43.289 106.911 43.275 107.028 43.2506C107.146 43.2227 107.251 43.1773 107.345 43.1144C107.439 43.0516 107.509 42.9608 107.564 42.8491C107.619 42.7374 107.646 42.5943 107.646 42.4232C107.646 42.2766 107.619 42.1544 107.572 42.0532C107.521 41.9519 107.455 41.8716 107.369 41.8123C107.283 41.7529 107.181 41.711 107.071 41.6831C106.958 41.6587 106.837 41.6412 106.712 41.6412C106.528 41.6412 106.376 41.6517 106.258 41.6761V43.2576L106.25 43.2541Z" fill="#909191"/>
<path d="M112.697 45.5966H109.378V40.9675H110.504V44.8286H112.697V45.5966Z" fill="#909191"/>
<path d="M113.163 40.9675H116.286V41.732H114.289V42.8701H116.099V43.6381H114.289V44.8286H116.322V45.5966H113.163V40.9675Z" fill="#909191"/>
<path d="M116.857 41.3375C116.857 41.2083 116.908 41.1071 117.009 41.0268C117.115 40.95 117.244 40.9081 117.4 40.9081C117.592 40.9081 117.741 40.957 117.85 41.0547C117.959 41.156 118.014 41.2921 118.014 41.4667C118.014 41.6412 117.983 41.7844 117.916 41.9031C117.85 42.0218 117.772 42.123 117.678 42.2033C117.584 42.2836 117.49 42.3499 117.389 42.3988C117.287 42.4477 117.201 42.4826 117.131 42.5035L116.861 42.1719C116.962 42.137 117.052 42.0846 117.131 42.0113C117.209 41.9415 117.252 41.8542 117.267 41.7529C117.166 41.7495 117.072 41.7111 116.986 41.6447C116.9 41.5784 116.857 41.4702 116.857 41.3305" fill="#909191"/>
<path d="M119.605 44.7168C119.605 44.6226 119.566 44.5458 119.484 44.4829C119.402 44.4201 119.301 44.3607 119.175 44.3049C119.05 44.249 118.917 44.1932 118.781 44.1338C118.64 44.078 118.507 44.0081 118.386 43.9244C118.261 43.8406 118.159 43.7393 118.077 43.6206C117.995 43.5019 117.956 43.3518 117.956 43.1703C117.956 42.8631 118.069 42.6222 118.296 42.4546C118.523 42.2871 118.855 42.2033 119.297 42.2033C119.559 42.2033 119.805 42.2242 120.036 42.2661C120.266 42.308 120.454 42.3604 120.587 42.4232L120.337 43.0341C120.223 42.9992 120.086 42.9643 119.926 42.9329C119.766 42.898 119.609 42.8805 119.453 42.8805C119.16 42.8805 119.015 42.9713 119.015 43.1528C119.015 43.2366 119.054 43.3064 119.136 43.3623C119.218 43.4147 119.32 43.4705 119.445 43.5229C119.57 43.5753 119.703 43.6311 119.84 43.687C119.981 43.7428 120.114 43.8161 120.235 43.9034C120.36 43.9907 120.462 44.0954 120.544 44.2176C120.626 44.3398 120.665 44.4934 120.665 44.6714C120.665 44.9752 120.54 45.2195 120.29 45.4046C120.039 45.5896 119.668 45.6839 119.175 45.6839C118.933 45.6839 118.695 45.6629 118.46 45.6175C118.221 45.5756 118.034 45.5163 117.893 45.4465L118.186 44.8111C118.311 44.8635 118.456 44.9088 118.616 44.9507C118.781 44.9926 118.953 45.0101 119.128 45.0101C119.265 45.0101 119.379 44.9856 119.469 44.9403C119.559 44.8949 119.605 44.8181 119.605 44.7203" fill="#909191"/>
<path d="M126.392 45.5966H123.073V40.9675H124.195V44.8286H126.392V45.5966Z" fill="#909191"/>
<path d="M126.803 41.355C126.803 41.2223 126.862 41.1141 126.975 41.0303C127.089 40.943 127.249 40.9011 127.456 40.9011C127.663 40.9011 127.831 40.943 127.953 41.0268C128.078 41.1106 128.14 41.2223 128.14 41.3584C128.14 41.4946 128.078 41.6028 127.953 41.6831C127.828 41.7634 127.659 41.8018 127.456 41.8018C127.253 41.8018 127.085 41.7599 126.975 41.6796C126.862 41.5958 126.803 41.4911 126.803 41.3584M126.928 42.2906H127.988V45.5966H126.928V42.2906Z" fill="#909191"/>
<path d="M130.2 44.0151L130.31 44.5388H130.345L130.443 44.0082L130.994 42.2906H132.136L130.638 45.628H129.923L128.347 42.2906H129.586L130.2 44.0151Z" fill="#909191"/>
<path d="M135.365 45.3522C135.216 45.45 135.013 45.5303 134.759 45.5896C134.501 45.6525 134.235 45.6804 133.954 45.6804C133.645 45.6804 133.379 45.642 133.152 45.5617C132.929 45.4814 132.746 45.3662 132.605 45.2161C132.464 45.066 132.359 44.8844 132.288 44.6715C132.218 44.4585 132.187 44.2141 132.187 43.9418C132.187 43.3449 132.347 42.905 132.663 42.6222C132.98 42.3395 133.422 42.1963 133.989 42.1963C134.18 42.1963 134.364 42.2173 134.54 42.2592C134.72 42.3011 134.876 42.3709 135.017 42.4721C135.158 42.5734 135.271 42.7025 135.357 42.8701C135.443 43.0342 135.486 43.2436 135.486 43.495C135.486 43.5927 135.478 43.694 135.463 43.8057C135.447 43.9174 135.428 44.0361 135.396 44.1618H133.226C133.242 44.4376 133.316 44.6435 133.457 44.7902C133.598 44.9368 133.829 45.0101 134.145 45.0101C134.337 45.0101 134.509 44.9892 134.669 44.9438C134.825 44.8984 134.947 44.853 135.029 44.8041L135.357 45.3557L135.365 45.3522ZM133.973 42.8736C133.746 42.8736 133.578 42.9399 133.465 43.0761C133.352 43.2122 133.285 43.4007 133.269 43.6416H134.501C134.521 43.3903 134.485 43.1983 134.395 43.0691C134.309 42.9399 134.169 42.8736 133.977 42.8736" fill="#909191"/>
<path d="M137.667 44.7168C137.667 44.6226 137.628 44.5458 137.546 44.4829C137.464 44.4201 137.363 44.3607 137.241 44.3049C137.116 44.249 136.983 44.1932 136.843 44.1338C136.702 44.078 136.573 44.0081 136.448 43.9244C136.323 43.8406 136.221 43.7393 136.139 43.6206C136.061 43.5019 136.022 43.3518 136.022 43.1703C136.022 42.8631 136.135 42.6222 136.358 42.4546C136.585 42.2871 136.917 42.2033 137.359 42.2033C137.621 42.2033 137.871 42.2242 138.101 42.2661C138.332 42.308 138.516 42.3604 138.653 42.4232L138.402 43.0341C138.289 42.9992 138.152 42.9643 137.992 42.9329C137.832 42.898 137.675 42.8805 137.519 42.8805C137.226 42.8805 137.081 42.9713 137.081 43.1528C137.081 43.2366 137.12 43.3064 137.202 43.3623C137.284 43.4147 137.386 43.4705 137.507 43.5229C137.632 43.5753 137.765 43.6311 137.906 43.687C138.043 43.7428 138.176 43.8161 138.301 43.9034C138.426 43.9907 138.528 44.0954 138.61 44.2176C138.688 44.3398 138.727 44.4934 138.727 44.6714C138.727 44.9752 138.602 45.2195 138.356 45.4046C138.105 45.5896 137.73 45.6839 137.241 45.6839C136.995 45.6839 136.757 45.6629 136.522 45.6175C136.287 45.5756 136.096 45.5163 135.955 45.4465L136.248 44.8111C136.373 44.8635 136.518 44.9088 136.682 44.9507C136.843 44.9926 137.018 45.0101 137.194 45.0101C137.331 45.0101 137.445 44.9856 137.535 44.9403C137.621 44.8949 137.667 44.8181 137.667 44.7203" fill="#909191"/>
</g>
</g>
</g>
</g>
<defs>
<clipPath id="clip0_273_1307">
<rect width="161" height="47" fill="white"/>
</clipPath>
<clipPath id="clip1_273_1307">
<rect width="161" height="47" fill="white"/>
</clipPath>
</defs>
</svg>
